<svg id="Lager_1" data-name="Lager 1" xmlns="http://www.w3.org/2000/svg" viewBox="0 0 121.89 89.29"><defs><style>.cls-1{fill:#c8d130;}.cls-2{fill:#e0d832;}.cls-3{fill:#284966;}.cls-4{fill:#58998f;}.cls-5{fill:#6ba942;}.cls-6{fill:#e3e798;}.cls-7{fill:#efec97;}.cls-8{fill:#93a1b2;}.cls-9{fill:#abccc7;}.cls-10{fill:#b2d09f;}</style></defs><path class="cls-1" d="M78.86,10.83a4.38,4.38,0,1,1,1.31.11m0,0L78.72,27.72a.35.35,0,0,1-.37.31L77.72,28a.34.34,0,0,1-.31-.36l1.45-16.78"/><path class="cls-1" d="M78.4,28.15h-.06l-.63,0a.47.47,0,0,1-.42-.51l1.44-16.67a4.47,4.47,0,1,1,1.55.14L78.84,27.73A.46.46,0,0,1,78.4,28.15Zm.46-17.32H79L77.54,27.62a.17.17,0,0,0,0,.15.23.23,0,0,0,.14.08l.63,0a.2.2,0,0,0,.16,0,.19.19,0,0,0,.07-.14L80,10.93h.13v-.12a4.25,4.25,0,1,0-1.27-.11Z"/><path class="cls-1" d="M57.6,16.2a4.37,4.37,0,1,1,1.11-.7m0,0,8.94,14.27a.35.35,0,0,1-.1.47l-.54.33a.35.35,0,0,1-.47-.1L57.6,16.2"/><path class="cls-1" d="M66.85,30.75h-.12a.45.45,0,0,1-.29-.21L57.55,16.36a4.5,4.5,0,1,1,1.32-.83L67.76,29.7a.46.46,0,0,1-.15.64l-.53.34A.48.48,0,0,1,66.85,30.75ZM57.7,16.13l9,14.27a.2.2,0,0,0,.13.09.2.2,0,0,0,.17,0l.53-.34a.22.22,0,0,0,.07-.3L58.6,15.57l.1-.07-.08-.09a4.22,4.22,0,1,0-1.07.68l.05.11Z"/><path class="cls-2" d="M43.64,33a4.37,4.37,0,1,1,.51-1.21m0,0L59.66,38.3a.35.35,0,0,1,.18.45l-.25.58a.34.34,0,0,1-.44.18L43.64,33"/><path class="cls-2" d="M59.3,39.66a.44.44,0,0,1-.2,0L43.69,33.11a4.52,4.52,0,1,1,.6-1.44L59.7,38.19a.46.46,0,0,1,.25.61l-.24.58A.47.47,0,0,1,59.3,39.66ZM43.69,32.84l15.5,6.56a.23.23,0,0,0,.29-.12l.24-.58a.21.21,0,0,0-.11-.28L44.1,31.86l0-.12-.12,0a4.25,4.25,0,1,0-.5,1.18l.11.06Z"/><path class="cls-3" d="M94.17,76.77,85.48,62.35a.34.34,0,0,1,.11-.47l.54-.33a.35.35,0,0,1,.47.12l8.69,14.42m0,0a4.39,4.39,0,1,1-1.12.68"/><path class="cls-3" d="M97.16,84.61a4.51,4.51,0,0,1-4-2.16,4.46,4.46,0,0,1,.9-5.71L85.37,62.41a.47.47,0,0,1,.16-.64l.54-.32a.44.44,0,0,1,.35-.06.49.49,0,0,1,.29.22l8.63,14.33a4.48,4.48,0,0,1,3.94,8A4.6,4.6,0,0,1,97.16,84.61Zm-3-7.84.08.1a4.21,4.21,0,0,0-.93,5.45,4.24,4.24,0,0,0,7.26-4.4,4.2,4.2,0,0,0-5.24-1.71l0-.12-.1.07-8.7-14.43a.18.18,0,0,0-.13-.09.18.18,0,0,0-.16,0l-.54.33a.2.2,0,0,0-.07.29l8.69,14.43Z"/><path class="cls-4" d="M108.8,60.52,93.29,54a.35.35,0,0,1-.18-.45l.25-.58a.34.34,0,0,1,.44-.18l15.51,6.56m0,0a4.38,4.38,0,1,1-.51,1.21"/><path class="cls-4" d="M113.22,66.08a4.49,4.49,0,0,1-4.57-5.49L93.24,54.07a.51.51,0,0,1-.25-.25.5.5,0,0,1,0-.36l.24-.58a.51.51,0,0,1,.25-.25.45.45,0,0,1,.36,0l15.41,6.52a4.49,4.49,0,1,1,4,6.93Zm-4.42-5.56.12,0a4.24,4.24,0,1,0,.5-1.18l-.11-.06,0,.11L93.75,52.86a.22.22,0,0,0-.16,0,.2.2,0,0,0-.12.12l-.24.58a.18.18,0,0,0,0,.16.2.2,0,0,0,.12.12l15.51,6.56Z"/><path class="cls-4" d="M111.08,38.77l-16.4,3.81a.35.35,0,0,1-.41-.26l-.14-.61a.34.34,0,0,1,.25-.41l16.4-3.81m0,0a4.38,4.38,0,1,1,.3,1.28"/><path class="cls-4" d="M94.6,42.71a.47.47,0,0,1-.45-.36L94,41.74a.46.46,0,0,1,.34-.56l16.3-3.79a4.52,4.52,0,1,1,.36,1.52L94.71,42.7Zm16.18-5.22,0,.12-16.4,3.81a.22.22,0,0,0-.16.26l.14.61a.22.22,0,0,0,.26.17l16.4-3.81,0,.12.12-.05a4.2,4.2,0,0,0,4.89,2.57A4.25,4.25,0,0,0,114.16,33a4.21,4.21,0,0,0-3.25,4.46Z"/><path class="cls-5" d="M99.11,19a4.37,4.37,0,1,1,1,.84m0,0L89.26,32.67a.33.33,0,0,1-.47,0l-.49-.41a.33.33,0,0,1,0-.47L99.11,19"/><path class="cls-5" d="M89,32.92a.54.54,0,0,1-.32-.11l-.48-.41a.47.47,0,0,1-.16-.32.44.44,0,0,1,.11-.33L98.94,19a4.52,4.52,0,1,1,1.2,1L89.36,32.75a.47.47,0,0,1-.31.16ZM99.11,19l.09.08L88.36,31.91a.17.17,0,0,0,0,.15.21.21,0,0,0,.07.15l.49.41a.24.24,0,0,0,.14.05h0a.21.21,0,0,0,.15-.07L100,19.71l.09.08.07-.11a4.23,4.23,0,0,0,6.43-4,4.24,4.24,0,1,0-7.41,3.16Z"/><path class="cls-6" d="M69.65,19.64a3.51,3.51,0,1,1,1.28-.3m0,0,2,8.59a.33.33,0,0,1-.25.4l-.62.15a.36.36,0,0,1-.41-.26l-2-8.58"/><path class="cls-6" d="M72,28.61a.48.48,0,0,1-.26-.07.47.47,0,0,1-.21-.29l-2-8.49a3.62,3.62,0,1,1,1.52-.35l2,8.49a.44.44,0,0,1-.06.35.48.48,0,0,1-.29.21l-.61.14Zm-2.22-9,2,8.58a.24.24,0,0,0,.1.14.18.18,0,0,0,.16,0l.62-.14a.24.24,0,0,0,.13-.09.25.25,0,0,0,0-.17l-2-8.58.13,0-.05-.12a3.37,3.37,0,0,0,.41-5.94,3.37,3.37,0,1,0-1.65,6.23v.13Z"/><path class="cls-7" d="M55.38,28.71a3.49,3.49,0,1,1,.86-1m0,0,6.66,5.77a.34.34,0,0,1,0,.48l-.41.48a.34.34,0,0,1-.48,0l-6.66-5.77"/><path class="cls-7" d="M62.28,34.69a.48.48,0,0,1-.32-.11l-6.59-5.71a3.62,3.62,0,0,1-5.76-2.64,3.55,3.55,0,0,1,.87-2.63,3.62,3.62,0,0,1,5.92,4.09L63,33.4a.47.47,0,0,1,.16.31.45.45,0,0,1-.11.34l-.42.48A.46.46,0,0,1,62.28,34.69Zm-6.82-6.08,6.66,5.78a.23.23,0,0,0,.3,0l.42-.48a.28.28,0,0,0,0-.16.19.19,0,0,0-.07-.14l-6.66-5.78.08-.09-.11-.07a3.37,3.37,0,0,0-5.46-3.89A3.39,3.39,0,0,0,51,28.52a3.38,3.38,0,0,0,4.29.09l.08.1Z"/><path class="cls-8" d="M96.71,64.55l-6.66-5.78a.34.34,0,0,1,0-.48l.41-.48a.34.34,0,0,1,.48,0l6.66,5.77m0,0a3.51,3.51,0,1,1-.86,1"/><path class="cls-8" d="M99.73,69.92a3.62,3.62,0,0,1-3.18-5.35L90,58.86a.43.43,0,0,1-.16-.31.45.45,0,0,1,.11-.34l.41-.48a.49.49,0,0,1,.32-.16.47.47,0,0,1,.34.11l6.58,5.71a3.62,3.62,0,1,1,2.16,6.53Zm-3-5.37.11.06a3.36,3.36,0,1,0,.83-1l-.08-.1-.08.1-6.66-5.78a.28.28,0,0,0-.16,0,.26.26,0,0,0-.15.07l-.41.48a.18.18,0,0,0,0,.16.17.17,0,0,0,.07.14l6.66,5.78Z"/><path class="cls-9" d="M103.67,49.13l-8.78-.75a.34.34,0,0,1-.31-.37l0-.63a.34.34,0,0,1,.37-.31l8.78.76m0,0a3.5,3.5,0,1,1-.11,1.3"/><path class="cls-9" d="M107.31,52.39a2.48,2.48,0,0,1-.47,0,3.61,3.61,0,0,1-3.28-3.13l-8.69-.75a.47.47,0,0,1-.31-.16.48.48,0,0,1-.11-.34l.06-.63A.46.46,0,0,1,95,47l8.68.74a3.62,3.62,0,0,1,7.06,1.39,3.62,3.62,0,0,1-3.44,3.31Zm-3.52-3.27a3.37,3.37,0,1,0,.11-1.26l-.12,0V48L95,47.19a.22.22,0,0,0-.24.2l0,.63a.21.21,0,0,0,.2.23l8.78.76v.12Z"/><path class="cls-10" d="M99.56,31.45a3.51,3.51,0,1,1,.68,1.12m0,0-7.55,4.55a.34.34,0,0,1-.47-.11l-.32-.54A.34.34,0,0,1,92,36l7.55-4.55"/><path class="cls-10" d="M92.54,37.3a.34.34,0,0,1-.14,0,.43.43,0,0,1-.28-.21l-.33-.54a.47.47,0,0,1,.16-.64l7.46-4.49a3.64,3.64,0,1,1,.81,1.33l-7.47,4.5A.52.52,0,0,1,92.54,37.3Zm7-5.85.07.11-7.55,4.55a.21.21,0,0,0-.08.29l.33.54a.21.21,0,0,0,.29.08l7.56-4.55.06.1.09-.08a3.37,3.37,0,1,0-.65-1.08Z"/><path class="cls-10" d="M86.53,20.68a3.49,3.49,0,1,1,1.2.51m0,0L84.3,29.31a.33.33,0,0,1-.45.18l-.58-.24a.35.35,0,0,1-.18-.45l3.44-8.12"/><path class="cls-10" d="M84,29.65a.52.52,0,0,1-.21,0l-.58-.25a.47.47,0,0,1-.25-.25.5.5,0,0,1,0-.36l3.39-8a3.62,3.62,0,0,1,3.5-6.29,3.65,3.65,0,0,1,1.95,2,3.59,3.59,0,0,1,0,2.77,3.63,3.63,0,0,1-4,2.16l-3.4,8a.41.41,0,0,1-.25.25Zm2.52-9,.11.05-3.43,8.12a.17.17,0,0,0,0,.17.2.2,0,0,0,.11.11l.58.25a.25.25,0,0,0,.17,0,.19.19,0,0,0,.11-.12l3.44-8.11.11,0,0-.12a3.37,3.37,0,1,0-1.16-.49Z"/><path class="cls-3" d="M19.54,60.11h-1.1a1.38,1.38,0,0,1-1.52-1.52V54.74c0-3.91-1.58-5.6-5.25-5.6s-5.26,1.69-5.26,5.6V57.6c0,2.74.94,3.56,3.68,5.08l5.84,3.21c3.15,1.75,5.25,3.91,5.25,7.35v5.43c0,6-3.21,8.52-9.4,8.52h-.11c-6.19,0-9.4-2.51-9.4-8.52V73.42A1.35,1.35,0,0,1,3.79,71.9H4.9a1.38,1.38,0,0,1,1.51,1.52v4.31c0,3.86,1.58,5.72,5.31,5.72S17,81.59,17,77.73V74.47c0-2.75-1.06-3.8-3.86-5.37L7.46,65.94c-3.56-2-5.19-3.67-5.19-7.23V53.8c0-5.71,3.73-8.4,9.34-8.4h.11c5.61,0,9.34,2.69,9.34,8.4v4.79A1.36,1.36,0,0,1,19.54,60.11Z"/><path class="cls-3" d="M40.52,65.48c3.79.58,4.78,3.67,4.78,6.48v6.71c0,4.78-3.26,8-9.45,8H27.5A1.35,1.35,0,0,1,26,85.2V47.38a1.35,1.35,0,0,1,1.51-1.51H36c6.18,0,9.1,3.27,9.1,8.05v5.14C45.07,61.8,44.08,65.13,40.52,65.48ZM30.19,63.73h5.66c3.27,0,5-1.29,5-4.15V54.86c0-3.51-1.4-5.26-5-5.26H30.19Zm5.89,3.73H30.19V83h5.89c3.62,0,5-1.75,5-5.26V71.61C41.1,68.75,39.35,67.46,36.08,67.46Z"/><path class="cls-3" d="M69.45,54.51V78.08c0,5.84-3.38,8.64-9.57,8.64H51.65a1.36,1.36,0,0,1-1.52-1.52V47.38a1.36,1.36,0,0,1,1.52-1.51h8.23C66.07,45.87,69.45,48.67,69.45,54.51Zm-9.8-4.85H54.34V82.93h5.31c3.91,0,5.6-1.64,5.6-5.9V55.56C65.25,51.3,63.56,49.66,59.65,49.66Z"/><path class="cls-3" d="M76.91,86.72H75.8a1.36,1.36,0,0,1-1.52-1.52V47.38a1.36,1.36,0,0,1,1.52-1.51h1.11a1.39,1.39,0,0,1,1.57,1.51V85.2A1.4,1.4,0,0,1,76.91,86.72Z"/></svg>